# xmcd
#
# Track frame offsets: 
#        150
#        18427
#        33272
#        51340
#        67075
#        82652
#        97267
#        114410
#        129012
#        145110
#        161142
#        181512
#
# Disc length: 2706 seconds
#
# Revision: 20
# Processed by: cddbd v1.5.2PL0 Copyright (c) Steve Scherf et al.
# Submitted via: ExactAudioCopy v0.99pb3
#
DISCID=940a900c
DTITLE=Lonestar - Lonely Grill
DYEAR=1999
DGENRE=Country
TTITLE0=Saturday Night
TTITLE1=Simple As That
TTITLE2=Amazed
TTITLE3=What About Now
TTITLE4=Tell Her
TTITLE5=Don't Lets Talk About Lisa
TTITLE6=I've Gotta Find You
TTITLE7=You Don't Know What Love Is
TTITLE8=All the Way
TTITLE9=Smile
TTITLE10=Lonely Grill
TTITLE11=Everything's Changed (Acoustic Version)
EXTD=
EXTT0=
EXTT1=
EXTT2=
EXTT3=
EXTT4=
EXTT5=
EXTT6=
EXTT7=
EXTT8=
EXTT9=
EXTT10=
EXTT11=
PLAYORDER=
